# xmcd CD database file
#
# Track frame offsets:
#	150
#	18439
#	31218
#	45171
#	57872
#	70801
#	82598
#	93049
#	106927
#	113788
#	123589
#	130877
#	140677
#	151027
#	161217
#	171945
#
# Disc length: 2474 seconds
#
# Revision: 0
# Processed by: cddbd v1.4PL0 Copyright (c) Steve Scherf et al.
# Submitted via: Feurio! 1.63 - http://www.feurio.com
#
DISCID=c109a810
DTITLE=Various Artist - Songs Of The West
DYEAR=1900
DGENRE=country
TTITLE0=Ed Bruce - Mamas Don't Let Your Babies Grow Up To Be Cowboys
TTITLE1=Susan Raye - L.A. International Airport
TTITLE2=Barbara Fairchild - Teddy Bear Song
TTITLE3=Bellamy Brothers - Let Your Love Flow
TTITLE4=Kenny Rogers - Ruby, Don't Take Your Love To Town
TTITLE5=Bonnie Guitar - Country Lady
TTITLE6=Ferlin Husky - Wings Of A Dove
TTITLE7=Willie Nelson - Home Is Where You're Happy
TTITLE8=Waylon Jennings - It's So Easy
TTITLE9=Jerry Lee Lewis - I'm The Guilty One
TTITLE10=Conway Twitty - Treat Me Mean, Treat Me Cruel
TTITLE11=Ned Miller - From A Jack To A King
TTITLE12=Carl Perkins - Daddy Sang Bass
TTITLE13=Bobby Bare - West Virginia Woman
TTITLE14=George Jones - Let A Little Lovin' Come In
TTITLE15=Jimmy Dean - Big Bad John
EXTD=
EXTT0=
EXTT1=
EXTT2=
EXTT3=
EXTT4=
EXTT5=
EXTT6=
EXTT7=
EXTT8=
EXTT9=
EXTT10=
EXTT11=
EXTT12=
EXTT13=
EXTT14=
EXTT15=
PLAYORDER=
